<?xml version="1.0" encoding="UTF-8"?>
<!DOCTYPE svg PUBLIC "-//W3C//DTD SVG 1.1//EN" "http://www.w3.org/Graphics/SVG/1.1/DTD/svg11.dtd">
<!-- Creator: CorelDRAW 2017 -->
<svg xmlns="http://www.w3.org/2000/svg" xml:space="preserve" width="79.8938mm" height="80.2327mm" version="1.1" style="shape-rendering:geometricPrecision; text-rendering:geometricPrecision; image-rendering:optimizeQuality; fill-rule:evenodd; clip-rule:evenodd"
viewBox="0 0 7989.38 8023.27"
 xmlns:xlink="http://www.w3.org/1999/xlink">
 <defs>
  <style type="text/css">
   <![CDATA[
    .fil0 {fill:#FEFEFE}
   ]]>
  </style>
 </defs>
 <g id="Camada_x0020_1">
  <metadata id="CorelCorpID_0Corel-Layer"/>
  <g id="_1533244471344">
   <path class="fil0" d="M2769.93 4548.14c402.35,0 728.52,326.17 728.52,728.52 0,303.47 -185.58,563.58 -449.42,673.1l0 1542.59 1906.21 0 0 -1948.06 -1.41 0 0 -562.89 2504.63 0 0 -1906.21 -1158.93 0 0 -589.26 1152.55 0c295.52,0 537.3,241.79 537.3,537.31l0 1983.74c0,295.53 -241.78,537.31 -537.3,537.31l-1907.58 0 0 1941.68c0,295.51 -241.79,537.3 -537.31,537.3l-1983.74 0c-295.53,0 -537.31,-241.78 -537.31,-537.3l0 -1538.14c-261.36,-110.65 -444.73,-369.49 -444.73,-671.17 0,-402.35 326.17,-728.52 728.52,-728.52zm0 495.15c128.89,0 233.37,104.48 233.37,233.37 0,128.89 -104.48,233.37 -233.37,233.37 -128.89,0 -233.37,-104.48 -233.37,-233.37 0,-128.89 104.48,-233.37 233.37,-233.37z"/>
   <path class="fil0" d="M5219.45 3475.13c-402.35,0 -728.52,-326.17 -728.52,-728.52 0,-303.47 185.58,-563.58 449.42,-673.1l0 -1542.59 -1906.21 0 0 1948.06 1.41 0 0 562.89 -2504.63 0 0 1906.21 1158.93 0 0 589.26 -1152.55 0c-295.52,0 -537.3,-241.79 -537.3,-537.31l0 -1983.74c0,-295.53 241.78,-537.31 537.3,-537.31l1907.58 0 0 -1941.68c0,-295.51 241.79,-537.3 537.31,-537.3l1983.74 0c295.53,0 537.31,241.78 537.31,537.3l0 1538.14c261.36,110.65 444.73,369.49 444.73,671.17 0,402.35 -326.17,728.52 -728.52,728.52zm0 -495.15c-128.89,0 -233.37,-104.48 -233.37,-233.37 0,-128.89 104.48,-233.37 233.37,-233.37 128.89,0 233.37,104.48 233.37,233.37 0,128.89 -104.48,233.37 -233.37,233.37z"/>
  </g>
 </g>
</svg>
